<svg width="72" height="72" viewBox="0 0 72 72" fill="none" xmlns="http://www.w3.org/2000/svg">
<path d="M34.1955 0.0114534C28.4175 0.0812034 15.9953 1.0307 9.04726 7.40495C3.87901 12.526 2.07451 20.0972 1.86301 29.4595C1.68751 38.788 1.47601 56.3065 18.3623 61.0765V68.3417C18.3623 68.3417 18.2565 71.2487 20.178 71.845C22.545 72.5942 23.8928 70.3577 26.1428 67.9547L30.339 63.2095C41.8928 64.1702 50.742 61.9562 51.7613 61.6277C54.1058 60.8785 67.311 59.191 69.4688 41.6702C71.6828 23.5757 68.391 12.175 62.4488 7.01795H62.4128C60.6195 5.36645 53.4128 0.114953 37.3118 0.0564534C37.3118 0.0564534 36.117 -0.0245466 34.1955 0.00920338V0.0114534ZM34.3935 5.0987C36.0338 5.08745 37.0305 5.1572 37.0305 5.1572C50.6588 5.1932 57.1635 9.29495 58.698 10.6765C63.702 14.965 66.2805 25.243 64.3928 40.3495C62.5995 54.997 51.8895 55.924 49.9073 56.5562C49.0635 56.8262 41.2695 58.7477 31.4505 58.1155C31.4505 58.1155 24.138 66.94 21.852 69.2125C21.4898 69.6107 21.0668 69.7277 20.7968 69.6692C20.4098 69.5747 20.2928 69.0955 20.3153 68.4385L20.385 56.3807C6.06376 52.4207 6.90751 37.4785 7.06051 29.6732C7.23601 21.868 8.70076 15.4825 13.0613 11.158C18.9315 5.8502 29.4795 5.1347 34.389 5.0987H34.3935ZM35.4735 12.9017C35.3556 12.9005 35.2387 12.9227 35.1294 12.9669C35.0202 13.0111 34.9207 13.0765 34.8369 13.1593C34.753 13.2422 34.6863 13.3408 34.6408 13.4495C34.5952 13.5582 34.5715 13.6748 34.5713 13.7927C34.5713 14.2967 34.9808 14.695 35.4735 14.695C37.7044 14.6525 39.9216 15.0522 41.9973 15.8709C44.0729 16.6895 45.966 17.9111 47.5673 19.465C50.8365 22.6397 52.4295 26.9057 52.4903 32.4835C52.4903 32.9762 52.8885 33.3857 53.3925 33.3857V33.3497C53.63 33.3503 53.8582 33.257 54.0272 33.0901C54.1962 32.9232 54.2924 32.6962 54.2948 32.4587C54.404 29.8333 53.9783 27.2131 53.0434 24.7573C52.1085 22.3016 50.684 20.0616 48.8565 18.1735C45.2948 14.6927 40.7813 12.8995 35.4735 12.8995V12.9017ZM23.6138 14.965C22.9769 14.8719 22.3274 14.9997 21.7733 15.3272H21.726C20.4396 16.0813 19.2807 17.0343 18.2925 18.151C17.4713 19.1005 17.0258 20.0612 16.9088 20.986C16.839 21.5372 16.8863 22.0885 17.0505 22.615L17.109 22.651C18.0338 25.369 19.242 27.9835 20.718 30.445C22.6193 33.9031 24.9592 37.1013 27.6795 39.9602L27.7605 40.0772L27.8888 40.1717L27.9698 40.2662L28.0643 40.3472C30.9335 43.0755 34.1395 45.4263 37.6043 47.3425C41.5643 49.498 43.9673 50.5172 45.4095 50.9402V50.9627C45.8325 51.091 46.2173 51.1495 46.6043 51.1495C47.8334 51.0594 48.997 50.5604 49.9095 49.732C51.0211 48.7435 51.9635 47.5799 52.6995 46.2872V46.2647C53.3903 44.9642 53.1563 43.7335 52.1595 42.901C50.1633 41.1561 48.0047 39.6063 45.7133 38.2727C44.1788 37.4402 42.6195 37.9442 41.9873 38.788L40.6395 40.4867C39.9488 41.3305 38.6933 41.2135 38.6933 41.2135L38.6573 41.236C29.295 38.8442 26.7975 29.365 26.7975 29.365C26.7975 29.365 26.6805 28.0757 27.5468 27.4187L29.2343 26.0597C30.042 25.4027 30.6045 23.8457 29.7383 22.309C28.4139 20.0143 26.8675 17.8552 25.1213 15.8627C24.7395 15.393 24.2039 15.0734 23.6093 14.9605L23.6138 14.965ZM37.0305 17.638C35.8358 17.638 35.8358 19.4425 37.0418 19.4425C38.5274 19.4666 39.9937 19.7832 41.3569 20.3743C42.7201 20.9653 43.9535 21.8192 44.9865 22.8872C45.9289 23.9267 46.653 25.1448 47.116 26.4693C47.579 27.7938 47.7715 29.1977 47.682 30.598C47.6861 30.8349 47.7829 31.0609 47.9515 31.2274C48.1201 31.3939 48.3473 31.4878 48.5843 31.489L48.6203 31.5362C48.859 31.5344 49.0875 31.4388 49.2563 31.27C49.4251 31.1012 49.5207 30.8727 49.5225 30.634C49.6035 27.0587 48.492 24.0595 46.3118 21.6565C44.1203 19.2535 41.0625 17.9057 37.1588 17.638H37.0305ZM38.5088 22.489C37.278 22.453 37.2308 24.2935 38.4503 24.3295C41.4158 24.4825 42.8558 25.981 43.0448 29.0635C43.0489 29.2974 43.1444 29.5205 43.3109 29.6849C43.4775 29.8494 43.7017 29.9421 43.9358 29.9432H43.9718C44.0921 29.938 44.2102 29.909 44.3191 29.8577C44.4281 29.8064 44.5257 29.7339 44.6063 29.6445C44.687 29.555 44.749 29.4504 44.7888 29.3368C44.8286 29.2231 44.8453 29.1027 44.838 28.9825C44.6265 24.964 42.435 22.7005 38.5448 22.4912H38.5088V22.489Z" fill="#77239E"/>
</svg>
