<svg width="72" height="72" viewBox="0 0 72 72" fill="none" xmlns="http://www.w3.org/2000/svg">
<path d="M51.2871 42.76C50.4598 42.3292 46.3385 40.2832 45.572 40.0063C44.8054 39.714 44.2437 39.5756 43.6897 40.4371C43.128 41.2909 41.5342 43.1907 41.0332 43.7676C40.5475 44.3368 40.0542 44.406 39.2269 43.983C34.3087 41.4908 31.083 39.5371 27.8421 33.8991C26.9845 32.3992 28.6998 32.5068 30.3012 29.2686C30.5745 28.6994 30.4379 28.2148 30.2253 27.7841C30.0128 27.3533 28.3431 23.1844 27.6448 21.4845C26.9693 19.8308 26.271 20.0615 25.7625 20.0308C25.2768 20 24.7227 20 24.1611 20C23.5994 20 22.6962 20.2154 21.9297 21.0538C21.1631 21.9076 19 23.9613 19 28.1302C19 32.2992 21.998 36.3373 22.4078 36.9065C22.8329 37.4757 28.3051 46.029 36.7071 49.7134C42.0199 52.0363 44.0995 52.2363 46.756 51.8363C48.3726 51.5902 51.7045 49.7903 52.3952 47.7981C53.0859 45.8136 53.0859 44.1137 52.881 43.7599C52.676 43.383 52.1144 43.1677 51.2871 42.76Z" fill="#349E23"/>
<path d="M67.3585 22.825C65.6434 18.7496 63.1845 15.0915 60.0502 11.9496C56.9158 8.81518 53.2578 6.34866 49.1748 4.64107C45.0008 2.88795 40.5687 2 36 2H35.8482C31.2492 2.02277 26.7943 2.93348 22.6051 4.72455C18.56 6.45491 14.9324 8.91384 11.8284 12.0482C8.72445 15.1826 6.28832 18.8254 4.60352 22.8857C2.85801 27.0902 1.97766 31.5603 2.00043 36.1594C2.0232 41.4263 3.283 46.6554 5.64324 51.3304V62.8661C5.64324 64.7938 7.20662 66.3571 9.13427 66.3571H20.6774C25.3524 68.7174 30.5813 69.9772 35.8482 70H36.0076C40.5535 70 44.9628 69.1196 49.1141 67.3969C53.1743 65.7045 56.8247 63.2759 59.9515 60.1719C63.0858 57.0679 65.5523 53.4402 67.2751 49.3951C69.0661 45.2058 69.9768 40.7509 69.9996 36.1518C70.0223 31.5299 69.1268 27.0446 67.3585 22.825ZM55.8913 56.0661C50.5712 61.333 43.5133 64.2321 36 64.2321H35.871C31.2947 64.2094 26.7488 63.071 22.7341 60.9308L22.0966 60.5893H11.411V49.9036L11.0695 49.2661C8.92936 45.2513 7.79098 40.7054 7.76822 36.129C7.73786 28.5625 10.6293 21.4589 15.9342 16.1085C21.2314 10.758 28.3122 7.79821 35.8786 7.76786H36.0076C39.8022 7.76786 43.4829 8.50402 46.9512 9.96116C50.336 11.3804 53.3717 13.4219 55.9823 16.0326C58.5854 18.6357 60.6345 21.679 62.0537 25.0638C63.526 28.5701 64.2621 32.2888 64.247 36.129C64.2014 43.6879 61.2341 50.7688 55.8913 56.0661Z" fill="#349E23"/>
</svg>
