<svg width="24" height="24" viewBox="0 0 24 24" fill="none" xmlns="http://www.w3.org/2000/svg">
<path fill-rule="evenodd" clip-rule="evenodd" d="M15.9289 8.034C16.1251 7.86488 16.3898 7.76971 16.666 7.76905C16.9422 7.76838 17.2076 7.86229 17.4048 8.03045C17.602 8.19862 17.7152 8.42754 17.7199 8.66772C17.7246 8.9079 17.6204 9.14005 17.4299 9.31396L11.8351 15.3968C11.739 15.4869 11.6229 15.5592 11.4939 15.6094C11.3649 15.6596 11.2256 15.6866 11.0843 15.6889C10.943 15.6912 10.8026 15.6686 10.6716 15.6226C10.5405 15.5766 10.4215 15.5081 10.3215 15.4212L6.61458 12.1957C6.51131 12.112 6.42847 12.0111 6.37102 11.8989C6.31357 11.7868 6.28268 11.6657 6.28019 11.543C6.2777 11.4202 6.30367 11.2983 6.35653 11.1844C6.4094 11.0706 6.48808 10.9672 6.5879 10.8803C6.68771 10.7935 6.8066 10.7251 6.93749 10.6791C7.06837 10.6331 7.20856 10.6105 7.34969 10.6127C7.49083 10.6149 7.63002 10.6417 7.75895 10.6917C7.88789 10.7417 8.00393 10.8137 8.10016 10.9036L11.0349 13.455L15.9023 8.06081C15.911 8.05137 15.9203 8.04241 15.9303 8.034H15.9289Z" fill="white"/>
<rect x="1" y="1" width="22" height="22" rx="3" stroke="white" stroke-width="1.5"/>
</svg>
